<?xml version="1.0" encoding="UTF-8"?>
<svg width="752pt" height="752pt" version="1.1" viewBox="0 0 752 752" xmlns="http://www.w3.org/2000/svg">
 <path d="m465.93 538.94c8.5391-14.332 18.727-42.965 18.703-98.078-0.27734-39.082 10.113-60.395 20.859-79.012l1.3945-2.5078c9.6367-17.383 17.961-32.387 18.309-69.18 0-1.1719-0.019531-2.3789-0.050781-3.6367l-0.042969-2.3281c-0.96875-25.98-10.539-44.387-30.211-57.992-16.027-10.812-38.562-16.762-63.465-16.762h-0.83203c-20.035 0-41.094 4.0938-56.301 10.93l-1.7812 0.79297-1.6758-0.75391c-11.883-5.4062-27.656-9.1367-44.418-10.504-0.28516-0.019531-0.54687-0.03125-0.84375-0.03125l-27.344 0.375c-0.29687 0-0.57812 0.019531-0.875 0.050781-18.602 2.1016-34.926 7.6133-47.266 15.977-19.609 13.5-29.191 31.887-30.16 58.008-0.050781 2.1328-0.082031 4.0859-0.082031 5.9375 0.28516 36.551 8.5859 51.531 18.203 68.871l1.6094 2.918c10.652 18.43 21.031 39.691 20.734 78.895-0.011719 55.059 10.145 83.684 18.695 98.035 9.3828 15.613 14.719 21.969 29.996 21.969 14.172 0 22.598-12.348 23.582-24.402 0.64063-6.5156 0.76172-14.047 0.88281-22.023 0.29688-18.367 0.65234-41.219 7.5312-64.484l0.16016-0.53125c2.8984-9.4258 6.1836-20.113 12.543-29.73 3.832-5.7812 12.027-11.637 20.262-11.637 6.6367 0 12.391 3.8398 17.074 11.402 6.1406 9.9102 9.7773 20.5 12.797 30.422 6.9102 23.207 9.8984 50.141 8 72.059-1.2188 13.938 1.3633 24.496 7.6758 31.398 6.4102 6.9961 14.141 7.5312 16.355 7.5312h0.011719c14.469 0.007813 20.68-6.4648 29.969-21.977zm-228.38-248.77c0-1.6641 0.03125-3.4961 0.074219-5.3438 0.75391-20.473 7.4883-33.613 22.449-43.918 9.832-6.6562 23.258-11.141 38.848-12.949l26.469-0.36328c14.414 1.207 28.289 4.4609 38.18 8.9766l5.0742 2.2578 36.387 19.293c1.3203 0.70312 2.7422 1.0352 4.1367 1.0352 3.168 0 6.2383-1.707 7.8281-4.7031 2.2852-4.3086 0.64062-9.6641-3.668-11.965l-19.453-10.305c11.199-3.1602 24.305-5.0312 36.727-5.0312h0.83203c21.102 0 40.629 5.0117 53.492 13.684 15.004 10.379 21.742 23.551 22.492 43.82l0.042969 2.2188c0.019531 1.1484 0.042969 2.25 0.042969 3.2305-0.30859 32.219-6.9219 44.152-16.082 60.672l-1.332 2.3984c-2.4727 4.2891-4.9805 8.832-7.3906 13.746h-43.16c-0.29688 0.019531-6.8711 0.050781-9.2383-5.9062v-16.02c0.15234-2.4492 0.16016-10.672-5.6523-17.148-3.0391-3.3828-8.7422-7.4102-18.672-7.4102l-66.918-0.007813c-9.9414 0-15.645 4.0234-18.672 7.4102-5.8242 6.4727-5.8008 14.695-5.6641 17.148v16.02c-2.1953 5.5391-8.1328 5.8945-9.3945 5.9062h-42.957c-2.3906-4.8516-4.8711-9.3398-7.3086-13.566l-1.5469-2.7852c-9.1133-16.508-15.715-28.422-15.965-60.395zm198.46 253.06c-0.29688-0.019531-1.9922-0.20312-3.4883-1.9219-1.5352-1.7812-3.9766-6.4336-2.9766-17.777 2.125-24.375-1.0352-53.035-8.6797-78.691-3.2109-10.582-7.4727-22.961-14.695-34.641-7.9141-12.746-19.324-19.77-32.121-19.77-15.227 0-28.551 9.8203-35.008 19.559-7.7852 11.75-11.625 24.25-14.707 34.305l-0.19141 0.60938c-7.5938 25.676-7.9688 49.875-8.2852 69.309-0.12109 7.9375-0.23438 14.789-0.8125 20.723 0 0.082031-0.82031 8.2969-5.957 8.2969-5.8867 0-6.793 0-14.812-13.344-6.0469-10.164-16.191-35.23-16.18-88.898 0.17187-23.664-3.3242-41.707-8.3477-56.391h35.426c7.4883 0.23438 22.383-3.832 26.918-19.762 0.22266-0.78125 0.33203-1.6094 0.33203-2.4219v-17.777c0-0.20312-0.019531-0.58984-0.03125-0.79297-0.050781-0.71484 0.0625-3.0273 1.1953-4.2344 1.207-1.3008 3.9453-1.4922 5.4688-1.4922h66.91c1.5156 0 4.2578 0.19141 5.4688 1.4922 1.1289 1.207 1.25 3.5273 1.207 4.0859-0.03125 0.31641-0.050781 0.62891-0.050781 0.94531v17.777c0 0.82031 0.10938 1.6328 0.34375 2.4219 4.4609 15.684 19.121 19.762 26.406 19.762h0.34375 35.629c-5.043 14.719-8.5508 32.738-8.3828 56.332 0.019531 53.719-10.145 78.785-16.191 88.941-7.9805 13.316-9.6992 13.355-14.73 13.355z"/>
</svg>
