<?xml version="1.0" encoding="UTF-8"?>
<svg width="752pt" height="752pt" version="1.1" viewBox="0 0 752 752" xmlns="http://www.w3.org/2000/svg">
 <path d="m233.43 405.6h24.172v9.8672-0.003906c0 7.8516 3.1211 15.379 8.6719 20.93 5.5508 5.5508 13.078 8.6719 20.926 8.6719h21.211l3.3555 19.734-14.699-0.003906c-5.4492 0-9.8672 4.418-9.8672 9.8672 0 5.4492 4.418 9.8672 9.8672 9.8672h17.957l4.9336 29.598h-13.023c-5.4492 0-9.8672 4.418-9.8672 9.8672 0 5.4492 4.418 9.8672 9.8672 9.8672h16.281l1.9727 11.445v-0.003906c1.5391 9.3281 7.4414 17.355 15.883 21.609l30.488 15.195c2.793 1.4062 6.0859 1.4062 8.8789 0l30.488-15.195c8.4414-4.2539 14.344-12.281 15.883-21.609l1.9727-11.445 16.281 0.003906c5.4492 0 9.8633-4.418 9.8633-9.8672 0-5.4492-4.4141-9.8672-9.8633-9.8672h-13.023l4.9336-29.598h17.953c5.4492 0 9.8672-4.418 9.8672-9.8672 0-5.4492-4.418-9.8672-9.8672-9.8672h-14.699l3.3555-19.734 21.211 0.003906c7.8516 0 15.379-3.1211 20.93-8.6719 5.5508-5.5508 8.6719-13.078 8.6719-20.93v-9.8633h24.172c6.7969 0.035157 13.133-3.4336 16.77-9.1758 19.09-29.566 28.887-64.172 28.121-99.355 0-67.977-36.898-108.53-98.664-108.53-31.949 0.89453-63.027 10.629-89.781 28.117-25.852-13.715-56.438-28.117-87.812-28.117-61.762 0-98.66 40.551-98.66 108.53-0.78125 35.188 9.0117 69.797 28.117 99.355 3.6367 5.7422 9.9766 9.2109 16.773 9.1758zm173.94 136.45c-0.51953 3.1133-2.5 5.793-5.3281 7.2031l-26.047 13.023-26.047-13.023c-2.8242-1.4102-4.8047-4.0898-5.3281-7.2031l-1.3789-8.1875h65.512zm4.6367-27.922h-72.023l-4.9336-29.598h81.891zm8.2891-49.332h-88.797l-3.2578-19.734h95.109zm54.363-49.332c0 2.6172-1.0391 5.1289-2.8906 6.9766-1.8477 1.8516-4.3594 2.8906-6.9766 2.8906h-177.59c-5.4453 0-9.8633-4.418-9.8633-9.8672v-9.8633h197.32zm-187.46-207.19c30.883 0 63.242 17.465 88.797 31.57v0.003906c11.605 6.8906 23.746 12.828 36.309 17.758 5.1758 1.7461 10.789-1.0391 12.531-6.2148 1.7422-5.1758-1.0391-10.785-6.2148-12.531-7.9102-2.9961-15.562-6.6289-22.891-10.852 21.062-12.129 44.773-18.902 69.062-19.734 50.121 0 78.93 32.363 78.93 88.797 0.85156 31.473-7.9258 62.449-25.156 88.797h-285.23c-17.156-26.375-25.895-57.344-25.062-88.797 0-56.434 28.812-88.797 78.93-88.797z"/>
</svg>
