<?xml version="1.0" encoding="UTF-8"?>
<svg width="752pt" height="752pt" version="1.1" viewBox="0 0 752 752" xmlns="http://www.w3.org/2000/svg">
 <g>
  <path d="m244.73 333.84-0.042969 2.0508c-0.015625 0.9375-0.03125 1.8281-0.03125 2.7461 0.24609 30.398 7.1445 42.852 15.141 57.273l1.3281 2.3984c8.6289 14.898 17.043 32.109 16.82 63.902-0.042969 45.465 8.4062 69.262 15.527 81.254 7.8477 13.051 12.676 18.773 25.969 18.773 12.637 0 20.094-10.887 20.922-21.457 0.54297-5.418 0.63672-11.637 0.74609-18.227 0.23828-14.953 0.54297-33.57 6.1211-52.406l0.16016-0.54297c2.332-7.6016 4.9688-16.23 10.043-23.887 2.918-4.3828 9.1055-8.832 15.297-8.832 4.8594 0 9.1172 2.8984 12.66 8.6094 4.9336 7.957 7.8828 16.539 10.32 24.578 5.6211 18.875 8.0508 40.738 6.5 58.484-1.0391 11.891 1.2188 20.969 6.7227 26.969 5.6953 6.2188 12.605 6.707 14.586 6.707h0.003906c12.559 0 18.152-5.793 25.953-18.801 7.1055-11.945 15.57-35.727 15.527-81.273-0.21484-31.727 8.2031-48.949 16.934-64.039l1.1797-2.1328c8-14.426 14.898-26.891 15.176-57.422 0-1.0547-0.019531-2.1445-0.042969-3.2734l-0.03125-1.6953c-0.8125-21.863-8.8828-37.359-25.48-48.809-13.406-9.043-32.223-14.035-52.996-14.035h-0.58203c-16.73 0-34.273 3.418-46.898 9.1211l-0.79297 0.34766-0.73828-0.32812c-9.9648-4.5234-23.098-7.6289-36.965-8.7383-0.27734-0.019531-0.54297-0.042968-0.81641-0.027344l-22.43 0.29688c-0.29688 0-0.58984 0.019531-0.875 0.050781-15.504 1.75-29.148 6.3555-39.52 13.363-16.52 11.426-24.586 26.91-25.395 49zm35.391-34.379c7.8594-5.3125 18.602-8.8828 31.102-10.34l21.562-0.28516c11.562 0.96094 22.711 3.5703 30.715 7.207l4.125 1.8359 29.785 15.805c1.3203 0.70312 2.7383 1.0312 4.1367 1.0312 3.168 0 6.2344-1.707 7.8281-4.6953 2.2852-4.3203 0.65234-9.6758-3.668-11.965l-12.391-6.5781c8.1133-1.9258 17.188-3.0273 25.871-3.0273h0.58203c17.023 0 32.73 4.0117 43.02 10.953 11.855 8.1797 17.172 18.602 17.773 34.66l0.027344 1.5781c0.019531 1.0039 0.035156 1.9844 0.042969 2.8477-0.23438 25.969-5.5742 35.598-12.953 48.926l-1.1133 2.0156c-9.4297 16.285-19.465 36.695-19.223 72.805 0.042969 43.648-8.1484 63.934-13.031 72.125-6.0195 10.055-7.1562 10.184-10.633 10.184-2.4297-0.28516-4.6523-4.8984-3.8164-14.43 1.7656-20.156-0.85156-43.883-7.1836-65.125-2.6641-8.7891-6.1992-19.098-12.23-28.805-6.793-10.949-16.629-16.977-27.695-16.977-13.078 0-24.512 8.4062-30.039 16.742-6.4961 9.8008-9.6641 20.156-12.215 28.492l-0.1875 0.59766c-6.2969 21.242-6.6133 41.207-6.8711 57.234-0.10937 6.4844-0.19922 12.086-0.67578 16.957 0 0.0625-0.62891 5.3125-3.293 5.3125-4.2305 0-4.6719 0-10.781-10.152-4.8828-8.2227-13.062-28.531-13.02-72.105 0.25-36.195-9.7852-56.586-19.121-72.688l-1.25-2.2695c-7.3789-13.316-12.715-22.934-12.918-48.762l0.0625-4.3203c0.57031-16.234 5.8867-26.652 17.676-34.785z"/>
  <path d="m479.59 269.68c2.8203 0.050781 27.035 1.5664 27.035 36.762 0 4.8828 3.9609 8.8438 8.8438 8.8438 4.8867 0 8.8516-3.9609 8.8516-8.8438 0-35.238 24.273-36.715 26.961-36.762 4.8828 0 8.8477-3.9648 8.8477-8.8477 0-4.8867-3.9648-8.8477-8.8477-8.8477-26.469 0-26.957-35.277-26.961-36.762-0.011718-4.875-3.957-8.8164-8.832-8.832h-0.019531c-4.8672 0-8.8203 3.9453-8.8438 8.8125-0.011719 1.5039-0.5 36.781-26.969 36.781h-0.015625-0.027344-0.015625c-0.003906 0-0.015625 0.003907-0.015625 0h-0.03125-0.011719c-4.8398 0.0625-8.7383 3.9961-8.7383 8.8477 0.015625 4.8672 3.9375 8.8086 8.7891 8.8477zm35.883-20.582c2.6328 4.4805 5.957 8.6133 10.09 11.977-3.6914 2.8359-7.1562 6.4531-10.09 10.984-2.9297-4.5312-6.4023-8.1484-10.086-10.984 4.1328-3.3633 7.4531-7.4961 10.086-11.977z"/>
  <path d="m297.91 372c2.7461 0.0625 26.262 1.5547 26.262 35.785 0 4.8867 3.9648 8.8516 8.8516 8.8516 4.8828 0 8.8438-3.9648 8.8438-8.8516 0-34.289 23.59-35.727 26.199-35.777 4.8828 0 8.8477-3.9609 8.8477-8.8477 0-4.8867-3.9648-8.8477-8.8477-8.8477-25.707 0-26.188-34.344-26.199-35.785 0-4.875-3.9492-8.8125-8.8203-8.8281h-0.019531c-4.8711 0-8.8203 3.9453-8.8516 8.8125-0.003907 1.457-0.48828 35.801-26.191 35.801h-0.011719-0.019531-0.015625-0.015625c-0.011719 0.003906-0.011719 0.003906-0.019531 0.003906h-0.011719-0.003906-0.011719-0.015625-0.015625-0.011718c-4.8203 0.074219-8.7031 4.0078-8.7031 8.8438 0.003907 4.8633 3.9297 8.8125 8.7812 8.8398zm35.109-19.953c2.5195 4.2305 5.668 8.1328 9.5664 11.34-3.4883 2.7109-6.7695 6.1406-9.5664 10.402-2.8008-4.2617-6.0781-7.6914-9.5664-10.402 3.8945-3.207 7.0508-7.1055 9.5664-11.34z"/>
  <path d="m213.27 268.98c1.6289 0 15.941 0.64063 15.941 22.715 0 4.8867 3.9648 8.8477 8.8516 8.8477 4.8828 0 8.8438-3.9609 8.8438-8.8477 0-21.18 13.375-22.637 15.941-22.715 4.8867 0 8.8516-3.9609 8.8516-8.8438 0-4.8867-3.9648-8.8516-8.8516-8.8516-15.316 0-15.918-20.426-15.941-22.727 0-4.8711-3.9453-8.8047-8.8125-8.8203h-0.03125c-4.8594 0-8.8125 3.9336-8.8516 8.7969-0.015625 2.3281-0.61328 22.754-15.941 22.754-4.8867 0-8.8477 3.9609-8.8477 8.8516 0 4.8789 3.9609 8.8398 8.8477 8.8398zm24.793-12.02c0.85938 1.1445 1.7891 2.2422 2.8047 3.2695-0.97656 0.91406-1.9102 1.9102-2.8047 2.9961-0.89844-1.0859-1.8438-2.082-2.8164-2.9961 1.0156-1.0273 1.9531-2.125 2.8164-3.2695z"/>
 </g>
</svg>
