<?xml version="1.0" encoding="UTF-8"?>
<svg width="752pt" height="752pt" version="1.1" viewBox="0 0 752 752" xmlns="http://www.w3.org/2000/svg">
 <path d="m250.36 367.57c10.195 17.617 20.125 37.949 19.855 75.445-0.035156 52.824 9.7266 80.367 17.949 94.207 9.0664 15.07 14.234 21.211 29.074 21.211 13.871 0 22.059-12.027 22.965-23.727 0.61328-6.2617 0.73438-13.5 0.85156-21.148 0.28125-17.586 0.63672-39.457 7.2148-61.707l0.20703-0.67187c2.7461-8.9688 5.875-19.141 11.914-28.25 3.6211-5.4688 11.352-10.996 19.125-10.996 6.2227 0 11.633 3.6172 16.07 10.773 5.8125 9.3633 9.3164 19.527 12.219 29.07 6.6211 22.246 9.4805 48.02 7.6562 68.934-1.1797 13.457 1.3359 23.676 7.4727 30.371 6.25 6.8242 13.785 7.3477 15.945 7.3477h0.011719c14.047 0 20.062-6.25 29.059-21.242 8.2031-13.793 17.98-41.316 17.938-94.223-0.25391-37.414 9.6836-57.781 19.973-75.574l1.375-2.4883c9.2539-16.691 17.242-31.102 17.562-66.41 0-1.1602-0.027343-2.3477-0.050781-3.582l-0.035156-2.1719c-0.9375-25.039-10.164-42.773-29.137-55.871-15.43-10.41-37.121-16.137-61.078-16.137h-0.73047c-19.363 0-39.637 3.9492-54.156 10.523l-1.5625 0.69141-1.4727-0.65234c-11.465-5.2188-26.637-8.8047-42.711-10.098-0.26953-0.019531-0.54688-0.03125-0.82031-0.027343l-26.215 0.34375c-0.29297 0-0.58203 0.019531-0.875 0.050781-17.887 2.0195-33.598 7.3164-45.504 15.367-18.902 13.043-28.141 30.773-29.066 56.055l-0.035157 2.4727c-0.019531 1.0547-0.042968 2.0703-0.035156 3.1055 0.29688 35.164 8.2812 49.566 17.527 66.254zm-1.2852-74.18c0.72266-19.496 7.1289-32.02 21.359-41.84 9.3945-6.3477 22.207-10.617 37.078-12.348l25.348-0.33203c13.734 1.1406 26.973 4.2461 36.473 8.5703l4.8711 2.1562 34.852 18.496c1.3203 0.70312 2.7422 1.0312 4.1367 1.0312 3.168 0 6.2344-1.707 7.8281-4.6953 2.2852-4.3203 0.64453-9.6758-3.668-11.965l-17.859-9.4766c10.488-2.8711 22.664-4.5586 34.281-4.5586h0.73047c20.168 0 38.828 4.7812 51.105 13.062 14.289 9.8672 20.695 22.402 21.422 41.707l0.035156 2.0547c0.019532 1.1172 0.042969 2.1953 0.042969 3.1758-0.27734 30.73-6.5977 42.133-15.336 57.902l-1.3047 2.3672c-10.922 18.887-22.543 42.543-22.262 84.348 0.042968 51.391-9.6641 75.379-15.441 85.078-7.5312 12.551-9.1367 12.625-13.793 12.625-0.28516-0.019531-1.7891-0.21484-3.1133-1.75-1.4297-1.6562-3.6992-6.0352-2.7617-16.742 2.0469-23.355-0.98437-50.883-8.3359-75.57-3.2695-10.742-7.2461-22.211-14.129-33.309-7.6602-12.34-18.703-19.129-31.105-19.129-14.738 0-27.633 9.4922-33.875 18.918-7.4531 11.242-11.125 23.215-14.082 32.844l-0.23047 0.75391c-7.2969 24.648-7.6719 47.863-7.9688 66.523-0.12109 7.6016-0.23047 14.172-0.78516 19.891-0.003906 0.074218-0.71875 7.5703-5.3398 7.5703-5.5938 0-6.3125 0-13.891-12.594-5.7812-9.7383-15.484-33.734-15.441-85.059 0.30859-41.887-11.32-65.52-22.145-84.223l-1.4453-2.6172c-8.7383-15.762-15.055-27.16-15.312-57.758z"/>
</svg>
