<?xml version="1.0" encoding="UTF-8"?>
<svg width="752pt" height="752pt" version="1.1" viewBox="0 0 752 752" xmlns="http://www.w3.org/2000/svg">
 <path d="m590.59 278.18c-3.2578-37.59-16.059-65.855-39.293-86.207-45.434-39.957-122.69-28.488-179.59 0.66406-46.102-32.852-131.64-40.102-176.48-0.66016-44.844 39.438-42.547 98.117-37.664 150.66 6.2656 58.398 23.379 115.12 50.465 167.23l-49.207 31.594c-8.9102 5.75-14.074 15.816-13.551 26.41 0.52734 10.59 6.6602 20.094 16.098 24.934 9.4336 4.8438 20.734 4.2812 29.641-1.4688l47.434-30.34c7.0664 10.152 14.805 19.816 23.16 28.934 4.4727 4.8516 10.586 7.8711 17.156 8.4727 6.5703 0.60156 13.129-1.2578 18.406-5.2148 5.2812-3.957 8.9023-9.7305 10.168-16.207 3.5508-18.574 9.4727-45.582 16.871-71.555l77.844-50.098c20.422 35.816 33.078 99.82 37 121.36 0.9375 4.8125 3.1914 9.2656 6.5078 12.871 3.3203 3.6055 7.5703 6.2227 12.289 7.5547 4.7344 1.3789 9.7578 1.418 14.512 0.11328 4.7578-1.3086 9.0586-3.9062 12.422-7.5156 44.77-48.098 94.938-148.44 104.11-247 0-2.6641 0.51953-5.4023 0.73828-8.1406l5.9922-3.8477 0.003906 0.003906c6.1836-3.9219 10.691-10 12.656-17.055 1.9609-7.0547 1.2422-14.586-2.0273-21.141-3.2656-6.5547-8.8477-11.664-15.66-14.344zm-421.79 63.418c-4.8086-49.875-6.4375-106.19 33.742-141.26 40.18-35.074 119.95-29.008 162.79 1.4062 4.293 3.0352 8.4375 6.1406 12.652 9.3242h0.003906c9.7148 7.7422 20.031 14.695 30.855 20.793 16.449 9.7383 36.098 12.531 54.609 7.7695 2.8242-0.99609 4.3477-4.0469 3.4492-6.8984-0.89844-2.8555-3.8945-4.4844-6.7773-3.6836-17.832 5.625-36.555-1.9961-46.102-7.0312-10.383-5.8008-20.281-12.434-29.598-19.828l-2.8125-2.0703c53.574-25.68 122.39-35.227 162.72 0.21875 20.277 17.832 31.449 42.477 35.148 75.773-2.6875 0.074219-5.3516 0.52344-7.918 1.332l-33.594-51.797c-3.0703-4.9922-8.1875-8.3789-13.984-9.25-5.7578-0.83984-11.625 0.44922-16.504 3.625l-96.934 62.453c-4.8594 2.9844-8.3828 7.7227-9.8438 13.23-1.457 5.5117-0.74219 11.371 2 16.367l32.855 51.059-218.22 140.59c-26.062-50.574-42.523-105.55-48.543-162.12zm295.4-41.07 20.199 31.078-14.801 9.5469-38.109-59.199 41.363-26.641 37.441 58.234 0.003907 0.003906c0.30078 0.36719 0.64844 0.69141 1.0391 0.96484l-17.539 11.32-20.273-31.227c-1.7617-2.2422-4.9336-2.7852-7.3398-1.2578s-3.2656 4.6289-1.9844 7.1758zm-3.8477 46.988-15.391 9.9141-32.855-51.059v0.003906c-1.3828-2.5586-1.6836-5.5625-0.83594-8.3438s2.7734-5.1055 5.3477-6.457l5.625-3.625 38.109 59.199zm22.199-97.973 15.762-10.137 20.273 31.523c0.57422 1.5977 1.8516 2.8438 3.4648 3.3828 1.6094 0.53906 3.3789 0.30859 4.8008-0.62109 1.418-0.93359 2.3359-2.4648 2.4844-4.1562s-0.48438-3.3594-1.7227-4.5234l-20.273-31.523 6.2148-3.9961c2.5898-1.7227 5.7227-2.4297 8.8047-2 2.5664 0.33984 4.8594 1.7695 6.2891 3.9219l32.855 51.059-41.363 26.641c-0.11719-0.44141-0.29297-0.86328-0.51953-1.2578zm-325.81 312.93c1.0156-4.8164 3.9219-9.0273 8.0625-11.691l52.836-34.184h0.37109l352-226.51c2.9727-1.9297 6.4414-2.957 9.9883-2.957 1.3438 0.003907 2.6836 0.15234 3.9961 0.44141 2.8906 0.65625 5.582 2 7.8438 3.9219l-434.81 279.79c-0.8125-2.8711-0.91406-5.8906-0.29297-8.8086zm139.63 12.137h-0.003906c-0.51953 2.8125-1.8242 5.4219-3.7617 7.5312-1.9375 2.1055-4.4297 3.625-7.1875 4.3828-2.7812 0.81641-5.7344 0.83594-8.5195 0.050781-2.7891-0.78516-5.3008-2.3438-7.2422-4.4922-7.9961-8.625-15.414-17.77-22.199-27.379l62.453-40.18c-5.8438 22.422-10.434 44.398-13.469 60.086zm180.7 7.3984c-1.9453 2.1484-4.4531 3.707-7.2422 4.4922-2.7891 0.78516-5.7422 0.76562-8.5195-0.050781-2.7617-0.75781-5.25-2.2773-7.1875-4.3828-1.9375-2.1094-3.2422-4.7188-3.7656-7.5312-4.3672-22.199-17.316-87.836-38.848-125.28l166.71-107.15c-9.0273 95.977-57.645 193.36-101.08 239.97zm120.91-272.61c-1.0195 4.8203-3.9219 9.0312-8.0664 11.691l-272.23 175.45c-0.63281 0.25781-1.2109 0.63672-1.7031 1.1094l-131.05 84.355c-3.3516 2.207-7.332 3.2617-11.336 3.0078-4.0039-0.25391-7.8164-1.8008-10.863-4.4141l435.25-279.78c0.67969 2.8203 0.67969 5.7617 0 8.582z"/>
</svg>
