<?xml version="1.0" encoding="UTF-8"?>
<svg width="752pt" height="752pt" version="1.1" viewBox="0 0 752 752" xmlns="http://www.w3.org/2000/svg">
 <g>
  <path d="m284.47 597.99c4.8633-1.3125 9.2656-3.9531 12.715-7.625 3.4531-3.6719 5.8125-8.2305 6.8203-13.168 26.047-124.61 52.613-150.8 70.297-150.8 17.758 0 43.805 27.082 66.598 152.43 0.88672 4.9531 3.1367 9.5625 6.4961 13.312s7.6914 6.4961 12.52 7.9219c4.8555 1.4609 10.023 1.5391 14.922 0.23047 4.8984-1.3047 9.3398-3.9453 12.828-7.6289 46.914-49.207 99.969-152.36 111-254.25 5.6992-54.238 7.9922-115.58-37-156.21-46.617-41.957-126.46-31.004-185.66-1.4805-47.875-34.629-136.15-43.215-182.92-2.9609-46.766 40.254-45.211 100.86-40.848 155.39 8.2891 102.12 59.199 206.53 104.63 256.77 3.3984 3.7734 7.7812 6.5234 12.656 7.9492s10.047 1.4648 14.945 0.11719zm-84.211-411.79c42.992-37 124.68-28.637 168.93 3.4766 4.3672 3.1836 8.6562 6.5117 12.949 9.8398l0.003906 0.003906c9.9414 8.2383 20.535 15.66 31.668 22.199 16.832 10.289 37.078 13.434 56.238 8.7305 2.9414-0.87891 4.6172-3.9766 3.7383-6.918-0.87891-2.9414-3.9766-4.6172-6.918-3.7383-18.648 5.625-37.887-2.5156-47.727-7.8438h-0.003906c-10.582-6.1641-20.652-13.168-30.117-20.941l-3.1836-2.5156c55.203-25.973 126.98-35.074 168.34 2.1445 41.363 37.219 38.922 95.234 33.52 146.81-10.434 99.453-62.008 199.79-107.66 247.74l0.003907 0.003906c-2.0664 2.2227-4.7188 3.8203-7.6484 4.6055-2.9336 0.78516-6.0273 0.72656-8.9297-0.16797-2.8789-0.81641-5.4688-2.4336-7.4727-4.6562-2-2.2266-3.3359-4.9727-3.8477-7.9219-20.203-109.52-44.844-160.87-77.621-161.54-32.707 0-58.531 50.762-81.398 159.61-0.57422 2.9453-1.9688 5.668-4.0234 7.8555-2.0586 2.1875-4.6914 3.7461-7.5938 4.5-2.9609 0.79297-6.082 0.72656-9.0039-0.19141s-5.5234-2.6484-7.4961-4.9883c-44.398-48.91-93.684-150.51-101.68-250.18-4.2148-51.648-5.1055-109.81 36.926-145.92z"/>
  <path d="m272.41 367.12c2.4883-0.30859 4.4609-2.25 4.8086-4.7344l9.9883-67.781 63.488-25.602 0.003906-0.003906c2.3398-0.92578 3.7656-3.3086 3.4688-5.8086-0.29297-2.5039-2.2344-4.4922-4.7266-4.8438l-67.781-9.7695-25.531-63.488c-0.92578-2.3438-3.3086-3.7656-5.8125-3.4727-2.5 0.29687-4.4883 2.2383-4.8438 4.7305l-10.062 67.855-63.117 25.602c-2.3438 0.92578-3.7695 3.3125-3.4727 5.8125s2.2383 4.4883 4.7305 4.8438l67.781 9.7695 25.602 63.488c0.91016 2.1875 3.1094 3.5547 5.4766 3.4023zm-26.344-77.473-50.539-7.3984 47.285-18.945c1.8281-0.74609 3.125-2.4102 3.4023-4.3672l7.3984-50.539 18.797 47.359c0.74609 1.8281 2.4062 3.125 4.3633 3.4023l50.539 7.3984-47.359 19.09 0.003906 0.003906c-1.832 0.74219-3.1289 2.4062-3.4023 4.3633l-7.3984 50.539-18.945-47.504c-0.70703-1.7695-2.2695-3.0547-4.1445-3.4023z"/>
  <path d="m440.16 414.78 44.77 6.4375 16.871 42.027c0.84766 2.1133 2.9023 3.4922 5.1797 3.4805h0.73828c2.4922-0.3125 4.4609-2.2539 4.8125-4.7383l6.4375-44.844 42.027-16.941c2.3438-0.92578 3.7695-3.3125 3.4727-5.8125-0.29297-2.5-2.2344-4.4883-4.7305-4.8438l-44.84-6.1406-16.945-41.957c-0.92578-2.3438-3.3125-3.7656-5.8125-3.4727-2.5 0.29688-4.4883 2.2383-4.8438 4.7305l-6.4375 44.844-41.957 16.574c-2.3398 0.92578-3.7656 3.3125-3.4727 5.8125 0.29688 2.5 2.2383 4.4883 4.7305 4.8438zm47.801-18.5c1.832-0.74609 3.1289-2.4102 3.4062-4.3672l3.9961-27.602 10.434 25.824v0.003907c0.74609 1.8281 2.4062 3.125 4.3633 3.4023l27.527 3.9961-25.824 10.434c-1.832 0.74609-3.1289 2.4062-3.4023 4.3633l-3.9961 27.602-10.062-25.824c-0.74609-1.832-2.4102-3.1289-4.3672-3.4023l-27.527-3.9961z"/>
 </g>
</svg>
