<?xml version="1.0" encoding="UTF-8"?>
<svg width="752pt" height="752pt" version="1.1" viewBox="0 0 752 752" xmlns="http://www.w3.org/2000/svg">
 <path d="m559.44 201.44c-44.398-40.18-121.43-29.598-178.18-1.4805-45.734-33.074-130.46-41.289-175.45-2.7383-44.992 38.555-43.363 96.863-39.145 149.18 7.918 97.973 56.461 198.02 100.34 246.26 4.3867 4.8594 10.418 7.9219 16.93 8.5977 6.5117 0.67578 13.043-1.0859 18.336-4.9414 5.2891-3.8555 8.9648-9.5352 10.316-15.938 24.938-119.28 50.316-144.37 67.188-144.37 16.945 0 41.809 25.898 63.859 145.92v-0.003906c0.87109 4.7891 3.0586 9.2422 6.3086 12.859 3.2539 3.6211 7.4492 6.2656 12.117 7.6406 4.7227 1.3828 9.7383 1.4219 14.484 0.11719 4.7422-1.3086 9.0312-3.9102 12.379-7.5195 44.988-47.211 96.195-146.14 106.19-244.19 5.3984-51.574 7.6172-110.4-35.668-149.4zm-184.99 7.3984c4.2188 3.0352 8.2891 6.2148 12.43 9.3984 9.5391 7.7773 19.684 14.781 30.34 20.941 16.203 9.8633 35.664 12.871 54.09 8.3633 2.9453-0.87891 4.6172-3.9766 3.7383-6.918-0.87891-2.9453-3.9766-4.6172-6.918-3.7383-17.832 5.4023-36.184-2.4414-45.582-7.3984-10.141-5.875-19.793-12.559-28.859-19.98l-2.8125-2.1445c39.957-18.723 88.797-28.191 127.42-16.281-0.26172 0.32031-0.48438 0.66797-0.66406 1.0352-22.199 59.199-73.332 96.195-134.01 97.086h-1.6289c-62.602 0-116.62-37.887-141.26-99.305 42.402-15.613 99.824-5.6992 134.01 19.09zm-161.24-3.0312c5.2812-4.4961 11.098-8.3242 17.316-11.395 26.418 65.711 84.355 106.19 151.55 106.19l2.0703-0.003906c65.34-0.8125 120.61-40.848 144.29-104.34 0.046875-0.39062 0.046875-0.78906 0-1.1836 7.3281 3.1523 14.176 7.3125 20.352 12.359-26.789 72.367-89.535 117.51-163.76 118.47h-2.4414c-75.477 0-140.59-45.137-171.45-118.39zm262.02 106.85c9.6484-5.5664 18.762-12.008 27.23-19.238l-43.953 193.57c-3.9844-12.691-8.9297-25.059-14.801-36.996zm-39.293 122.54c-5.0547-8.2344-11.262-15.711-18.422-22.199l11.469-81.398c11.461-2.8789 22.613-6.8672 33.297-11.91zm30.266 67.781 49.949-219.92c0.21094-0.85156 0.21094-1.7422 0-2.5898 11.18-11.633 20.875-24.609 28.859-38.629-11.766 80.508-48.172 261.65-71.184 310.79-2.1445-13.688-5.2539-29.598-9.6211-46.617 0.92578-0.66016 1.625-1.5898 1.9961-2.6641zm-48.762-169.16-10.141 71.777c-6.2734-3.9141-13.312-6.4375-20.645-7.4023v-61.195c10.332-0.22266 20.625-1.2891 30.785-3.1797zm-161.16-44.398h-0.003906c8.2148 7.4062 17.055 14.09 26.418 19.977-0.050781 0.41797-0.050781 0.84375 0 1.2578l32.188 141.7v0.003907c0.097656 0.30469 0.22266 0.60156 0.37109 0.88672-5.7773 10.922-10.867 22.191-15.242 33.742zm37 215.92h-0.003906c-4.875 14.969-8.9531 30.184-12.211 45.582-23.012-50.023-58.828-238.05-68.52-315.08 8.2383 14.496 18.176 27.957 29.598 40.105-0.12891 0.68359-0.12891 1.3867 0 2.0742l50.098 225.25c0.21094 0.88281 0.64453 1.6953 1.2578 2.3672zm1.9961-189.21h-0.003907c10.797 5.4922 22.094 9.9297 33.742 13.246l12.137 86.059c-0.015626 0.22266-0.015626 0.44531 0 0.66797-6.918 6.9023-13.023 14.574-18.203 22.863zm45.359 16.133h-0.003906c11.418 2.4766 23.031 3.9102 34.707 4.293v61.715-0.003906c-8.7227 1.0859-17.023 4.3711-24.125 9.5469zm243.15 17.684c-9.9883 95.234-59.199 191.5-103.15 237.31-1.9531 2.0859-4.4531 3.5781-7.2109 4.3125-2.7617 0.73047-5.6719 0.67578-8.4023-0.16797-2.7305-0.75781-5.1836-2.2812-7.0742-4.3945-1.8906-2.1133-3.1328-4.7227-3.582-7.5195-19.164-104.85-42.844-154.13-74.441-154.73-31.449 0-56.238 48.691-78.066 153.18v-0.003906c-0.52344 2.7812-1.832 5.3555-3.7734 7.4141-1.9414 2.0586-4.4336 3.5195-7.1758 4.207-2.7539 0.78125-5.6719 0.77344-8.418-0.027344-2.75-0.79688-5.2188-2.3516-7.1211-4.4883-42.773-46.84-89.906-144.22-97.68-239.68-3.4766-43.289-4.5859-91.312 22.199-125.8 5.9219 68.152 52.762 324.48 80.438 350.52 1.5 1.3906 3.6406 1.8438 5.5742 1.1797 1.9336-0.66797 3.3477-2.3398 3.6758-4.3594 7.7695-49.355 41.512-157.54 91.016-157.54 22.793 0 39.809 18.723 52.465 43.66v-0.003906c0.13281 0.36328 0.30859 0.71094 0.51562 1.0352 19.312 38.922 28.117 92.422 31.152 115.07 0.27734 2.0273 1.6484 3.7383 3.5703 4.4531 1.918 0.71094 4.0742 0.30859 5.6055-1.0469 29.598-26.418 79.102-298.65 85.098-355.85 32.113 35.664 29.895 87.316 25.012 133.49z"/>
</svg>
