<?xml version="1.0" encoding="UTF-8"?>
<svg width="752pt" height="752pt" version="1.1" viewBox="0 0 752 752" xmlns="http://www.w3.org/2000/svg">
 <path d="m496.77 390.8c2.2969-0.09375 4.2969-1.5938 5.0312-3.7734 9.3125-26.668 15.324-54.379 17.906-82.508 3.2578-38.332 4.293-81.398-25.602-110.25-29.895-28.859-82.508-21.461-120.98-0.44531-31.895-23.605-89.242-28.488-119.5 0.44531-30.266 28.934-28.859 71.852-25.602 110.25h-0.003907c2.5898 28.129 8.6016 55.836 17.906 82.508 0.76172 2.2539 2.875 3.7734 5.2539 3.7734h82.508v18.129l-15.688-2.5156c-1.457-0.26953-2.957 0.078126-4.1445 0.96094-1.1914 0.86719-1.9922 2.1719-2.2188 3.6289l-3.6992 23.16c-0.49219 3.0234 1.5625 5.8711 4.5859 6.3633l21.09 3.4023v23.09l-15.613-2.2227c-1.457-0.25781-2.9531 0.089844-4.1445 0.96484-1.1914 0.86328-1.9922 2.168-2.2188 3.625l-3.6992 23.16c-0.49219 3.0234 1.5625 5.8711 4.5859 6.3633l21.164 2.8867v42.18c-0.003906 1.3281 0.46875 2.6133 1.332 3.625l37 43.363-0.003906-0.003906c1.0586 1.2266 2.6016 1.9297 4.2188 1.9258 1.7617-0.015625 3.4062-0.86719 4.4414-2.293l36.555-43.363c0.84766-0.99219 1.3164-2.25 1.332-3.5508v-28.047l14.43 2.293h0.88672c2.7227 0 5.0391-1.9727 5.4766-4.6602l3.6992-23.16c0.48828-3.0234-1.5664-5.8711-4.5898-6.3633l-19.832-3.1836 0.003906-23.16 14.43 2.293h0.88672c2.7227 0 5.0391-1.9766 5.4766-4.6602l3.6992-23.16c0.48828-3.0273-1.5664-5.875-4.5898-6.3672l-19.832-3.1836 0.003907-31.52zm-89.316 151.18-31.078 37-31.598-37v-38.184l62.676 10.062zm23.754-48.098-1.9258 12.211-109.51-17.539 1.9258-12.211zm-86.43-25.086v-23.16l62.676 10.062v23.16zm86.43-33.078-1.9258 12.211-109.51-17.535 1.9258-12.211zm-86.43-25.082v-18.5h62.676v28.266zm-89.461-31.004c-8.3008-24.645-13.688-50.176-16.059-76.07-3.0352-35.816-4.0703-76.145 22.199-101.23 26.27-25.086 78.586-19.98 106.11 1.1836 2.8867 2.293 5.625 4.4375 8.4336 6.7344 6.5039 5.6211 13.457 10.691 20.793 15.168 11.273 7.3359 25.156 9.4688 38.109 5.8438 2.9414-0.98047 4.5352-4.1602 3.5508-7.1016-0.98047-2.9414-4.1602-4.5352-7.1016-3.5508-9.9375 2.4258-20.441 0.63281-29.008-4.9609-6.6797-4.1406-13.016-8.8164-18.941-13.984 34.336-17.465 78.215-23.605 103.6 0.88672 25.383 24.492 25.309 65.488 22.199 101.23l-0.003907 0.003906c-2.3633 25.895-7.7539 51.426-16.055 76.066h-237.83z"/>
</svg>
