<?xml version="1.0" encoding="UTF-8"?>
<svg width="752pt" height="752pt" version="1.1" viewBox="0 0 752 752" xmlns="http://www.w3.org/2000/svg">
 <path d="m492.47 257.61c-0.84766 0.10547-1.6602 0.41016-2.3672 0.88672-29.008-10.211-66.227-2.7383-95.457 12.062-30.707-20.348-86.059-24.938-114.84 0.81641-28.785 25.75-27.973 64.379-24.789 98.637 2.4805 25.52 8.3281 50.602 17.391 74.59-56.754 9.25-95.086 4.3672-100.93-11.395-4.8086-12.805 12.137-35.004 45.582-59.348 2.4922-1.7969 3.0586-5.2773 1.2578-7.7695-1.7969-2.4922-5.2773-3.0547-7.7695-1.2578-27.453 19.832-58.309 48.172-49.133 72.293 6.2148 16.574 28.711 23.605 60.012 23.605 18.645-0.26562 37.234-2.0977 55.57-5.4727 10.93 27.309 26.391 52.574 45.73 74.734 3.2266 3.4453 7.6055 5.5781 12.305 5.9922 4.7031 0.41797 9.3906-0.91797 13.168-3.7422 3.7773-2.8281 6.3789-6.9453 7.3086-11.574 15.391-80.434 31.82-92.863 40.18-92.863 8.3633 0 24.863 12.137 40.848 92.496 0.91016 4.6367 3.5117 8.7734 7.2969 11.605 3.7852 2.832 8.4883 4.1602 13.195 3.7227 4.707-0.43359 9.0859-2.6016 12.289-6.0781 28.117-30.266 61.121-93.383 67.188-160.28 0.59375-6.6602 1.1094-13.543 1.332-20.422 33.523-24.645 52.762-49.434 45.359-69.043-7.3984-19.609-39.438-27.527-90.719-22.199zm-147.99 260.69c-0.54688 2.957-2.7305 5.3398-5.625 6.1406-2.9297 0.85156-6.0859-0.035156-8.1406-2.293-17.895-20.59-32.273-43.988-42.547-69.262 29.262-5.8984 58.109-13.711 86.352-23.383-11.691 15.539-21.531 44.621-30.113 89.02zm181-149.7c-5.5508 61.418-36.555 123.8-64.305 153.69-2.043 2.2695-5.2109 3.1641-8.1406 2.293-2.8945-0.80078-5.0781-3.1836-5.6211-6.1406-11.766-59.199-25.602-91.609-42.992-99.453 42.746-16.125 83.633-36.816 121.95-61.711-0.22266 3.9219-0.59375 7.4727-0.88672 11.32zm-133.2 43.215c-35.227 13.309-71.516 23.605-108.48 30.781-9.3477-23.73-15.422-48.625-18.055-73.996-2.9609-31.227-4.0703-66.598 21.09-88.797 13.418-10.391 30.109-15.641 47.062-14.797 19.594-0.35547 38.867 5.0469 55.422 15.539 2.7383 1.9258 5.4023 3.9219 8.0664 5.918 6.3398 5.0195 13.07 9.5234 20.129 13.469 11.141 6.6055 24.48 8.4492 36.996 5.1055 1.4883-0.41016 2.7383-1.418 3.4492-2.7852 0.71484-1.3672 0.82812-2.9688 0.3125-4.4219-0.51563-1.4531-1.6133-2.6289-3.0273-3.2383-1.4141-0.61328-3.0234-0.60938-4.4336 0.011719-9.5859 2.1602-19.637 0.60156-28.117-4.3672-6.2812-3.5117-12.27-7.5195-17.91-11.988 33.004-15.242 74.738-20.422 99.305 1.1094 18.574 16.281 22.938 39.809 22.793 63.711v0.003907c-41.766 28.547-87.027 51.598-134.68 68.594zm145.7-76.957c-0.88672-23.68-6.957-46.691-26.418-63.785-1.332-1.1836-2.7383-2.1445-4.0703-3.1836 37-2.3672 61.047 3.1836 65.637 15.613 4.5898 12.434-8.7305 30.117-35.297 51.207z"/>
</svg>
