<?xml version="1.0" encoding="UTF-8"?>
<svg width="752pt" height="752pt" version="1.1" viewBox="0 0 752 752" xmlns="http://www.w3.org/2000/svg">
 <g>
  <path d="m557.14 198.41c-45.434-41.07-123.5-30.414-181.14-1.6289-46.691-33.742-133.19-42.105-178.55-2.8125-45.359 39.293-44.398 98.488-39.883 151.55 8.0664 99.676 57.496 201.49 102.12 250.63v-0.003906c4.4531 4.9141 10.57 8 17.164 8.6719 6.5977 0.67578 13.211-1.1172 18.562-5.0273 5.3555-3.9062 9.0781-9.6602 10.445-16.148 25.75-121.43 51.281-146.96 68.449-146.96 17.316 0 42.621 26.344 65.117 148.59 1.2227 6.5156 4.8125 12.348 10.078 16.379 5.2656 4.0273 11.832 5.9648 18.441 5.4414 6.6094-0.52344 12.793-3.4727 17.359-8.2812 46.098-48.023 97.895-148.8 108.11-248.11 5.5469-52.984 7.7695-112.85-36.262-152.29zm-352.52 3.9219c41.957-35.965 121.58-27.898 164.71 3.4766 4.293 3.1094 8.4375 6.3633 12.652 9.5469h0.003906c9.7461 7.918 20.117 15.047 31.004 21.309 16.473 10.02 36.25 13.078 54.98 8.5117 2.9414-0.87891 4.6133-3.9766 3.7344-6.918-0.875-2.9453-3.9727-4.6172-6.918-3.7383-18.129 5.4766-37-2.4414-46.469-7.3984-10.398-5.9727-20.297-12.781-29.598-20.352l-2.9609-2.293c52.539-24.641 120.17-33.52 160.87 0h-0.003906c-14.996 43.312-46.023 79.234-86.695 100.38-40.668 21.141-87.895 25.895-131.96 13.285l14.801-5.9922v-0.003906c2.3398-0.92578 3.7656-3.3086 3.4727-5.8086-0.29688-2.5039-2.2383-4.4922-4.7305-4.8438l-57.348-8.2891-21.68-53.723h-0.003907c-0.92578-2.3398-3.3086-3.7656-5.8086-3.4727-2.5039 0.29688-4.4922 2.2383-4.8438 4.7305l-4.4414 30.637c-19.238-19.145-34.461-41.938-44.77-67.043zm114.99 107.07-37.59 14.801h-0.003906c-1.8281 0.74609-3.125 2.4102-3.4023 4.3672l-5.7734 40.105-15.242-37.074c-0.74609-1.8281-2.4062-3.125-4.3633-3.4023l-40.035-5.7734 37.59-14.801v0.003906c1.832-0.74609 3.1289-2.4102 3.4062-4.3672l5.7734-40.105 14.801 37.59h-0.003906c0.74609 1.832 2.4062 3.1289 4.3672 3.4023zm262.76 39.883c-10.137 96.938-60.531 194.98-105 241.6v0.003906c-1.9961 2.1406-4.5508 3.6758-7.3789 4.4375-2.8242 0.75781-5.8086 0.70703-8.6055-0.14844-2.7617-0.77734-5.25-2.3125-7.1875-4.4297-1.9336-2.1211-3.2383-4.7383-3.7656-7.5586-19.758-106.93-43.805-157.02-75.922-157.61-31.965 0-57.199 49.504-79.398 155.84v0.003907c-0.5625 2.8438-1.9141 5.4688-3.9062 7.5781-1.9883 2.1055-4.5352 3.6094-7.3398 4.3359-2.8203 0.79297-5.8125 0.77734-8.625-0.046875-2.8125-0.82422-5.3359-2.4258-7.2852-4.6172-43.434-47.727-91.754-146.88-99.156-244.04-3.6992-45.582-4.6602-96.195 25.602-131.71h0.003906c11.742 27.152 29.035 51.551 50.762 71.633h0.51953l-1.9258 13.32-53.871 21.973c-2.3359 0.90234-3.7812 3.2617-3.5195 5.7539 0.25781 2.4922 2.1562 4.5039 4.6289 4.9023l57.57 8.5117 21.68 53.723c0.85156 2.1094 2.9062 3.4883 5.1836 3.4766h0.66406c2.4883-0.3125 4.4609-2.2539 4.8086-4.7383l8.2148-57.348 23.309-9.9141c0.57422 0.53516 1.2539 0.9375 2 1.1836 20.094 6.7852 41.168 10.234 62.379 10.211 70.742 0 144.66-37.887 178.55-123.8 34.188 36.48 31.965 90.203 27.008 137.71z"/>
  <path d="m500.98 362.31c-0.92188-2.3438-3.3086-3.7656-5.8086-3.4727-2.5 0.29688-4.4883 2.2383-4.8438 4.7305l-6.5117 45.73-42.844 17.242c-2.3438 0.92578-3.7695 3.3086-3.4727 5.8086 0.29297 2.5039 2.2344 4.4922 4.7305 4.8438l45.73 6.5859 17.238 43.215c0.85156 2.1133 2.9062 3.4922 5.1797 3.4805h0.66797c2.4883-0.3125 4.4609-2.2539 4.8086-4.7383l6.5859-45.73 42.844-17.242c2.3438-0.92188 3.7656-3.3086 3.4727-5.8086-0.29687-2.5-2.2383-4.4883-4.7305-4.8438l-45.73-6.5859zm14.355 68.227c-1.8281 0.74219-3.125 2.4062-3.4023 4.3633l-4.0703 28.488-10.73-26.715v0.003907c-0.74219-1.832-2.4062-3.1289-4.3633-3.4062l-28.488-4.0703 26.715-10.805-0.003906 0.003906c1.8125-0.73438 3.1055-2.3633 3.4062-4.293l4.0703-28.488 10.727 26.641c0.74609 1.8281 2.4102 3.125 4.3672 3.4023l28.488 4.0703z"/>
 </g>
</svg>
