<?xml version="1.0" encoding="UTF-8"?>
<svg width="752pt" height="752pt" version="1.1" viewBox="0 0 752 752" xmlns="http://www.w3.org/2000/svg">
 <g>
  <path d="m558.85 214.91c-0.13281-0.65625-0.38281-1.2852-0.73828-1.8516-5.1484-7.8164-11.32-14.91-18.352-21.086-44.398-38.773-119.06-27.676-174.26 0.59375-45.141-31.824-128.09-38.555-171.6-0.59375-43.512 37.957-41.363 95.23-36.629 146.21 5.3711 50.781 19.281 100.29 41.145 146.44 0.27344 0.57812 0.64844 1.1055 1.1094 1.5547l-41.734 31.375c-6.0273 4.5312-10.008 11.273-11.062 18.738-1.0547 7.4688 0.90234 15.047 5.4375 21.07l9.6211 12.801c4.5195 6.0234 11.262 9.9922 18.719 11.027 1.332 0.089844 2.668 0.089844 3.9961 0 6.1328 0.10547 12.137-1.7891 17.094-5.4023l34.262-25.824c6.7734 9.7812 14.188 19.098 22.199 27.898 4.3672 4.6562 10.293 7.543 16.652 8.1055s12.703-1.2344 17.82-5.0508c5.1172-3.8125 8.6523-9.3828 9.9258-15.637 5.0781-27.535 11.898-54.723 20.422-81.395l35.816-26.492c4.2578-3.2266 7.5195-7.5938 9.4062-12.594 1.8867-5.0039 2.3164-10.438 1.2461-15.672l5.1055-3.8477c21.09 9.9141 40.031 56.902 56.312 139.86v-0.003906c0.90625 4.707 3.1016 9.0664 6.3438 12.594 3.2383 3.5273 7.3984 6.0859 12.008 7.3867 4.6367 1.3242 9.5469 1.3359 14.188 0.027343 4.6367-1.3047 8.8203-3.8789 12.082-7.4258 39.738-42.695 87.539-131.79 99.602-227.54v-0.003907c21.871-17.191 33.211-44.535 29.914-72.164-3.293-27.625-20.742-51.535-46.047-63.102zm-390.48 122.24c-4.4414-48.246-5.9922-102.63 32.93-136.82s116.18-28.117 157.91 1.4062c4.1445 2.9609 8.2148 5.9922 12.285 9.0273h-0.003907c9.3164 7.4844 19.215 14.215 29.598 20.129 16.004 9.4023 35.09 12.062 53.055 7.3984 2.1484-1.3086 3.1445-3.8984 2.4336-6.3086-0.71094-2.4102-2.9531-4.043-5.4648-3.9766-17.242 5.4023-35.297-1.9258-44.398-6.8086-9.9961-5.6133-19.523-12.023-28.488-19.164l-2.5156-1.8516c51.281-24.715 117.95-33.891 156.88 0h-0.003906c3.2109 2.8281 6.2305 5.8672 9.0273 9.1016-19.105-3.9609-39.004-0.77734-55.918 8.9531-16.914 9.7266-29.672 25.324-35.855 43.832-6.1836 18.508-5.3594 38.641 2.3125 56.582l-105.22 79.547c-4.8633-3.0195-10.523-4.5-16.238-4.25-5.7188 0.25391-11.227 2.2227-15.805 5.6562l-106.63 79.992c-21.203-44.902-34.688-93.059-39.883-142.45zm123.57 225.91c-0.52734 2.6836-1.7891 5.1719-3.6445 7.1836s-4.2305 3.4688-6.8633 4.2109c-2.6172 0.72266-5.3828 0.71094-7.9922-0.035157-2.6094-0.74219-4.9648-2.1914-6.8086-4.1836-7.7969-8.5078-15.016-17.531-21.605-27.008l63.266-47.652c-7.5469 24.492-12.801 49.578-16.352 67.484zm60.086-114.55-157.1 118.39c-3.668 2.7695-8.2891 3.9688-12.84 3.332-4.5547-0.64062-8.6641-3.0625-11.43-6.7344l-9.25-12.805c-2.7695-3.668-3.9688-8.2852-3.332-12.84 0.64062-4.5547 3.0625-8.6641 6.7344-11.43l157.09-118.39h0.003906c3.668-2.7734 8.2891-3.9688 12.84-3.332 4.5547 0.64062 8.6641 3.0625 11.43 6.7344l9.6211 12.801c2.7539 3.7188 3.9062 8.3867 3.1992 12.961-0.71094 4.5742-3.2227 8.6758-6.9727 11.387zm12.875-29.598s-0.37109-0.66406-0.59375-1.0352l-9.1016-12.285 101.67-76.59 4.957 6.5859 4.8086 6.3633zm102.34 151.32c-1.8398 1.9922-4.1953 3.4414-6.8086 4.1836-2.6094 0.74609-5.3711 0.75781-7.9883 0.035157-2.6367-0.74219-5.0117-2.1992-6.8672-4.2109s-3.1133-4.5-3.6406-7.1836c-16.352-83.023-34.777-129.5-57.57-144.96l91.164-68.668c11.254 9.207 24.82 15.145 39.219 17.168 3.75 0.53125 7.5312 0.80469 11.32 0.8125 12.891 0.027343 25.594-3.0977 37-9.1016-14.059 89.684-58.531 171.97-95.828 211.93zm126.54-273.12c-2.457 17.574-11.668 33.5-25.676 44.398-1.0039 0.35156-1.8789 0.99609-2.5156 1.8477-14.605 10.395-32.695 14.664-50.41 11.902-17.711-2.7656-33.637-12.348-44.379-26.699-13.809-18.367-17.523-42.418-9.9062-64.098 7.6172-21.676 25.562-38.117 47.824-43.809 22.262-5.6914 45.895 0.11328 62.984 15.473 17.09 15.359 25.375 38.242 22.078 60.984z"/>
  <path d="m565.14 266.86c-1.4414 0.51172-2.6094 1.5938-3.2266 2.9961-0.61719 1.4023-0.625 2.9961-0.027344 4.4023 4.1367 11.414 2.6797 24.105-3.9336 34.285-6.6172 10.18-17.625 16.664-29.734 17.516-3.0664 0-5.5508 2.4844-5.5508 5.5469 0 3.0664 2.4844 5.5508 5.5508 5.5508 15.672-1.0703 29.922-9.4727 38.445-22.672 8.5234-13.195 10.316-29.645 4.8398-44.367-1.0469-2.4922-3.7305-3.8633-6.3633-3.2578z"/>
 </g>
</svg>
