<?xml version="1.0" encoding="UTF-8"?>
<svg width="752pt" height="752pt" version="1.1" viewBox="0 0 752 752" xmlns="http://www.w3.org/2000/svg">
 <path d="m564.84 179.32c-48.246-42.324-130.09-30.117-190.39 0.81641-49.285-34.855-139.78-42.551-187.29-0.81641-47.504 41.734-45.062 103.82-39.883 159.69 9.6914 104.34 62.824 210.67 110.33 261.65 4.6836 5.0742 11.082 8.2305 17.957 8.8633 6.875 0.62891 13.738-1.3125 19.266-5.4492 5.5273-4.1406 9.3242-10.18 10.652-16.957 25.234-128.31 52.242-155.39 70.445-155.39s45.285 27.23 70.52 155.39c1.3203 6.7969 5.1172 12.859 10.656 17.012 5.5391 4.1523 12.422 6.0977 19.316 5.457 6.8906-0.64062 13.301-3.8242 17.98-8.9258 47.504-50.984 100.63-157.32 110.33-261.65 5.1797-55.867 6.7344-118.39-39.883-159.69zm28.859 158.5c-9.4727 102.04-61.195 205.71-107.37 255.29v0.003906c-2.1094 2.3047-4.8203 3.9727-7.832 4.8125-3.0078 0.83594-6.1914 0.80859-9.1875-0.078125-2.9961-0.80859-5.7031-2.4453-7.8086-4.7227-2.1094-2.2773-3.5312-5.1016-4.1055-8.1523-22.199-111.96-47.875-164.57-81.398-164.57-33.52 0-59.199 52.539-81.398 164.5h0.003907c-0.53125 3.082-1.9258 5.9453-4.0234 8.2656-2.0938 2.3203-4.8047 3.9961-7.8164 4.832-2.9961 0.88672-6.1797 0.91406-9.1914 0.074218-3.0078-0.83594-5.7227-2.5039-7.8281-4.8086-46.176-49.578-97.898-153.25-107.37-255.29-4.957-53.133-6.5859-112.77 36.113-150.36 20.496-17.98 49.797-26.195 79.84-26.195 33.223-0.33203 65.801 9.1953 93.609 27.379 4.5156 3.1836 8.9531 6.5859 13.395 9.9141h-0.003906c10.289 8.2656 21.227 15.691 32.707 22.199 17.367 10.277 38.102 13.23 57.645 8.2148 2.8203-0.99609 4.3477-4.0469 3.4492-6.8984-0.89844-2.8555-3.8984-4.4844-6.7773-3.6836-19.09 5.9922-38.996-2.0703-49.133-7.3984h-0.003906c-10.953-6.1562-21.398-13.184-31.227-21.016l-3.4766-2.6641c56.312-27.453 130.01-37.664 172.93 0 42.918 37.664 41.145 97.379 36.184 150.29z"/>
</svg>
