<?xml version="1.0" encoding="UTF-8"?>
<svg width="752pt" height="752pt" version="1.1" viewBox="0 0 752 752" xmlns="http://www.w3.org/2000/svg">
 <path d="m283.06 606.06c4.7305-1.3516 9-3.9805 12.34-7.5938 3.3438-3.6172 5.625-8.0781 6.6016-12.902 25.602-122.69 51.797-148.51 69.188-148.51 17.465 0 43.066 26.641 65.785 150.07v-0.003907c0.88672 4.8906 3.1172 9.4336 6.4336 13.129 3.3203 3.6992 7.5977 6.4023 12.359 7.8125 4.8125 1.4336 9.9297 1.5 14.777 0.19531 4.8477-1.3086 9.2344-3.9375 12.676-7.5938 46.691-48.32 99.008-149.92 109.52-250.33 5.2539-53.5 7.8438-113.88-36.629-153.91-45.805-41.289-124.68-30.484-183.07-1.4805-46.914-34.039-133.93-42.473-180.11-2.8867-46.176 39.59-44.398 99.379-40.254 153.03 8.2109 100.64 58.086 203.49 103.15 252.92 3.3398 3.7422 7.6602 6.4766 12.469 7.9023 4.8086 1.4219 9.9219 1.4805 14.762 0.16406zm-82.879-405.58c42.625-36.332 122.76-28.117 166.35 3.4766 4.293 3.1094 8.5078 6.3633 12.801 9.6211 9.8086 8.1016 20.25 15.402 31.227 21.828 16.625 10.121 36.594 13.207 55.496 8.5859 2.9453-0.87891 4.6172-3.9766 3.7383-6.9219-0.87891-2.9414-3.9766-4.6133-6.918-3.7344-18.352 5.5508-37-2.4414-46.988-7.3984v-0.003906c-10.398-6.0547-20.297-12.934-29.602-20.57l-2.8828-2.8867c53.055-24.938 121.5-33.891 162.79 0-28.27 74.148-92.867 120.91-169.16 121.73-78.734 1.0352-146.96-45.434-178.63-121.73zm-10.434 10.582c34.113 77.105 103.6 124.46 184.99 124.46h2.6641c79.324-1.0391 146.59-48.988 176.93-125.28 34.629 36.629 32.41 90.645 27.379 138.89-10.285 97.898-61.121 196.91-106.04 244.19-2.0234 2.168-4.6172 3.7188-7.4844 4.4766-2.8672 0.76172-5.8906 0.69531-8.7227-0.1875-2.8242-0.80469-5.3633-2.3945-7.3281-4.5781-1.9648-2.1875-3.2695-4.8828-3.7695-7.7773-19.906-107.96-44.398-158.57-76.586-159.17-32.262 0-57.719 50.023-80.141 157.32-0.63281 2.9102-2.082 5.5742-4.1797 7.6836-2.0977 2.1133-4.7578 3.5781-7.6602 4.2305-2.8086 0.73828-5.7656 0.6875-8.5469-0.14844-2.7812-0.83594-5.2773-2.4219-7.2148-4.5859-43.805-48.098-92.348-148-100.27-246.41-3.6992-46.102-4.7344-97.453 25.973-133.12z"/>
</svg>
